<?xml version="1.0" standalone="no"?>
<!DOCTYPE svg PUBLIC "-//W3C//DTD SVG 20010904//EN"
 "http://www.w3.org/TR/2001/REC-SVG-20010904/DTD/svg10.dtd">
<svg version="1.0" xmlns="http://www.w3.org/2000/svg"
 width="3264.000000pt" height="877.000000pt" viewBox="0 0 3264.000000 877.000000"
 preserveAspectRatio="xMidYMid meet">

<g transform="translate(0.000000,877.000000) scale(0.100000,-0.100000)"
fill="#000000" stroke="none">
<path d="M18657 7663 c-4 -3 -7 -399 -7 -880 0 -480 -3 -873 -7 -873 -4 0 -46
13 -93 29 -319 110 -429 131 -697 131 -206 0 -302 -11 -471 -56 -232 -62 -389
-137 -617 -297 -306 -215 -565 -558 -689 -915 -153 -440 -115 -975 101 -1406
187 -373 481 -674 838 -856 164 -84 300 -127 520 -166 145 -26 485 -26 610 -1
311 64 523 149 740 295 60 40 122 85 138 98 16 13 33 24 38 24 6 0 34 -22 62
-48 243 -225 564 -366 884 -388 l93 -7 0 525 c0 574 4 538 -55 538 -42 0 -133
40 -185 81 -57 45 -91 92 -123 170 l-22 54 -5 1975 -5 1975 -521 3 c-286 1
-524 -1 -527 -5z m-601 -2673 c105 -30 188 -74 293 -154 140 -106 231 -232
277 -381 26 -87 27 -350 0 -455 -68 -272 -313 -509 -596 -575 -204 -49 -471 5
-642 129 -164 117 -255 245 -314 443 -23 76 -27 106 -27 218 1 111 4 143 27
219 106 355 441 596 806 581 64 -3 133 -12 176 -25z"/>
<path d="M2467 7403 c-4 -3 -7 -1142 -7 -2530 l0 -2523 530 0 530 0 0 2530 0
2530 -523 0 c-288 0 -527 -3 -530 -7z"/>
<path d="M24315 6094 c-481 -56 -894 -273 -1204 -634 -220 -255 -348 -531
-418 -895 -24 -127 -23 -472 1 -605 39 -213 116 -436 193 -562 13 -21 23 -40
23 -44 0 -7 89 -140 144 -214 54 -73 204 -228 285 -294 204 -166 483 -305 725
-362 191 -46 209 -48 431 -48 294 0 447 26 683 118 52 20 98 33 103 30 5 -3 9
-57 9 -120 l0 -114 525 0 526 0 -4 1073 c-3 963 -5 1081 -21 1157 -103 512
-375 933 -775 1201 -109 72 -299 171 -411 212 -85 32 -251 73 -370 92 -86 13
-357 19 -445 9z m314 -1064 c303 -40 564 -276 638 -578 23 -92 22 -284 -2
-377 -80 -318 -349 -551 -675 -584 -211 -22 -404 34 -568 165 -97 77 -164 161
-217 269 -55 114 -75 205 -75 340 0 216 62 373 209 529 182 192 414 272 690
236z"/>
<path d="M9805 6070 c-105 -7 -187 -18 -325 -45 -70 -14 -227 -68 -330 -113
-482 -213 -864 -616 -1018 -1077 -72 -213 -96 -367 -95 -605 1 -558 206 -1020
629 -1418 200 -189 455 -329 726 -401 172 -45 273 -56 518 -56 247 0 347 11
505 57 475 138 920 509 1143 954 47 93 92 202 92 221 0 11 -111 13 -616 13
l-616 0 -64 -46 c-81 -57 -147 -86 -269 -119 -262 -69 -525 0 -739 196 -92 84
-190 229 -169 250 5 5 570 10 1283 11 l1274 3 9 35 c5 19 9 143 9 275 1 223
-1 249 -26 370 -29 145 -42 189 -94 320 -95 239 -223 435 -407 621 -139 139
-201 190 -334 273 -161 101 -336 179 -496 221 -220 58 -378 74 -590 60z m295
-1079 c137 -37 258 -107 363 -209 37 -37 67 -72 67 -79 0 -17 -1255 -19 -1265
-2 -4 5 26 43 67 83 200 197 505 279 768 207z"/>
<path d="M13745 6073 c-314 -40 -591 -135 -820 -282 -336 -214 -563 -485 -738
-881 -64 -144 -120 -399 -132 -600 -5 -93 6 -299 20 -387 l6 -33 1279 0 c1228
0 1280 -1 1280 -18 0 -27 -62 -124 -119 -189 -85 -95 -223 -190 -335 -230
-237 -84 -539 -41 -728 104 l-56 43 -621 0 c-342 0 -621 -4 -621 -9 0 -38 143
-323 213 -426 203 -294 519 -552 848 -690 123 -51 179 -68 329 -98 88 -18 143
-21 345 -21 298 -1 418 16 645 91 616 203 1109 799 1214 1468 30 194 37 300
26 428 -30 346 -105 587 -262 842 -102 163 -284 363 -443 484 -88 67 -337 221
-356 221 -4 0 -40 15 -81 34 -113 51 -299 105 -418 121 -25 3 -65 10 -90 15
-49 10 -337 20 -385 13z m265 -1063 c113 -15 167 -31 279 -88 72 -35 115 -66
178 -126 46 -43 83 -84 83 -92 0 -12 -98 -14 -629 -14 -351 0 -632 4 -635 9
-8 12 63 90 126 138 106 82 225 138 358 168 71 16 135 18 240 5z"/>
<path d="M5517 6055 c-117 -17 -175 -31 -282 -67 -240 -80 -485 -230 -663
-406 -136 -134 -151 -152 -243 -288 -112 -164 -201 -357 -243 -525 -51 -203
-49 -149 -53 -1321 l-4 -1098 525 0 525 0 3 1038 4 1037 27 81 c43 129 92 207
192 308 96 97 177 146 300 183 90 26 278 24 367 -4 146 -48 248 -119 351 -246
56 -69 95 -143 128 -242 l24 -70 3 -1042 3 -1043 530 0 530 0 -4 1073 c-4
1048 -4 1075 -25 1187 -55 291 -127 468 -281 690 -139 202 -293 352 -498 488
-236 156 -441 232 -728 271 -104 14 -376 12 -488 -4z"/>
<path d="M20587 6043 c-4 -3 -7 -497 -7 -1097 0 -1162 2 -1215 50 -1401 71
-278 204 -501 440 -741 271 -275 594 -419 1008 -450 l92 -7 0 525 0 526 -94
21 c-228 53 -354 172 -412 389 -12 44 -14 234 -14 1132 0 593 -3 1085 -6 1094
-5 14 -61 16 -528 16 -288 0 -526 -3 -529 -7z"/>
</g>
</svg>
